<?xml version="1.0" encoding="utf-8"?>
<!-- Generator: Adobe Illustrator 23.1.0, SVG Export Plug-In . SVG Version: 6.00 Build 0)  -->
<svg version="1.1" id="Layer_1" xmlns="http://www.w3.org/2000/svg" xmlns:xlink="http://www.w3.org/1999/xlink" x="0px" y="0px"
	 viewBox="0 0 560 541.8" style="enable-background:new 0 0 560 541.8;" xml:space="preserve">
<style type="text/css">
	.st0{fill-rule:evenodd;clip-rule:evenodd;}
</style>
<path class="st0" d="M302.9,59.4c62.2,0,118.5,25.2,159.3,66c40.8,40.8,66,97.1,66,159.3S503,403.3,462.2,444
	c-28.6,28.6-64.9,49.6-105.5,59.5c12-8.9,23-19.2,32.6-30.5c28.9-34,46.4-78.1,46.4-126.1c0-33.7-8.8-66.5-25.3-95.8
	c-9.5-20.6-41.1-18.8-48.6,3.5l-7.2,21.3c-1.7,5.1-12.5,4.9-13.1-1.3l-2.9-27.2c-1.3-13.6-12.6-24.1-26.3-24.1h-51.1
	c-13,0-24,9.5-26.1,22.3l-3.3,20.6c-0.9,5.8-10.8,5.7-11.8,0l-4.3-21.5c-2.6-12.9-13.3-21.4-26.4-21.4H58.3
	c-15.5,0-27.4-12.2-26.5-27.6c2.3-43.4,19.6-82.1,44.2-111.1c24.7-29.1,56.4-48.3,87-52.4l-0.5,27.4c-0.3,19.9,20.7,33,38.4,24
	C232.7,67.6,267.2,59.4,302.9,59.4 M105.7,145.5c0-10.9-8.9-19.8-19.8-19.8c-10.9,0-19.8,8.9-19.8,19.8c0,10.9,8.9,19.8,19.8,19.8
	C96.8,165.3,105.7,156.4,105.7,145.5z M484.7,102.9c-46.5-46.5-110.8-75.3-181.8-75.3c-37.4,0-74.7,8.2-108.6,24l0.4-24.8
	C195,11.2,181.8-1,166.5,0.1C125.6,3,83.4,26.8,51.7,64.2C23,98.1,2.8,143.3,0.1,194.2c-1.8,34,24.8,60.9,58.5,60.9l126.6,0
	l3.5,17.4c9.5,41.3,68,38.5,74.3-1.3l2.6-16.1h41.8l2.4,22.7c4.1,39.8,62.1,45.7,74.8,8.3l3.3-9.7c10.5,22,16,46,16,70.4
	c0,40.3-14.6,77.2-38.8,105.6c-24.6,28.9-59,49.1-98,55.4c-18.3,2.9-17.1,29.6,0.7,31.4c11.7,1.6,23.4,2.4,35.2,2.4
	c71,0,135.3-28.8,181.8-75.3C531.2,420,560,355.7,560,284.7S531.2,149.5,484.7,102.9L484.7,102.9z"/>
</svg>
