<?xml version="1.0" encoding="utf-8"?>
<!-- Generator: Adobe Illustrator 23.1.0, SVG Export Plug-In . SVG Version: 6.00 Build 0)  -->
<svg version="1.1"
	 id="svg2" inkscape:version="0.48.5 r10040" sodipodi:docname="alpinelinux-logo.svg" xmlns:cc="http://creativecommons.org/ns#" xmlns:dc="http://purl.org/dc/elements/1.1/" xmlns:inkscape="http://www.inkscape.org/namespaces/inkscape" xmlns:rdf="http://www.w3.org/1999/02/22-rdf-syntax-ns#" xmlns:sodipodi="http://sodipodi.sourceforge.net/DTD/sodipodi-0.dtd" xmlns:svg="http://www.w3.org/2000/svg"
	 xmlns="http://www.w3.org/2000/svg" xmlns:xlink="http://www.w3.org/1999/xlink" x="0px" y="0px" viewBox="0 0 186.1 161.2"
	 style="enable-background:new 0 0 186.1 161.2;" xml:space="preserve">
<style type="text/css">
	.st0{fill:#231F20;}
</style>
<sodipodi:namedview  bordercolor="#666666" borderopacity="1" fit-margin-bottom="0" fit-margin-left="0" fit-margin-right="0" fit-margin-top="0" gridtolerance="10" guidetolerance="10" id="namedview4" inkscape:current-layer="g10" inkscape:cx="-197.05676" inkscape:cy="-80.4375" inkscape:pageopacity="0" inkscape:pageshadow="2" inkscape:window-height="964" inkscape:window-maximized="0" inkscape:window-width="1595" inkscape:window-x="276" inkscape:window-y="233" inkscape:zoom="0.33333333" objecttolerance="10" pagecolor="#ffffff" showgrid="false">
	</sodipodi:namedview>
<g id="g56" transform="translate(268.1394,393.2718)">
	<path id="path58" inkscape:connector-curvature="0" class="st0" d="M-200.5-292.9v-19.6l-14.1,14.1c1.5,1.1,3,1.9,4.3,2.6
		c1.3,0.7,2.6,1.3,3.8,1.7c1.2,0.4,2.3,0.7,3.3,0.9C-202.3-293-201.4-292.9-200.5-292.9 M-128.3-294.5c0,0,0.2,0.1,0.4,0.3
		c0.3,0.2,0.6,0.4,1.1,0.6c0.5,0.2,1.1,0.4,1.9,0.6c0.7,0.2,1.6,0.3,2.6,0.3c0.8,0,1.8-0.1,2.8-0.3c1-0.2,2.1-0.5,3.3-0.9
		c1.2-0.4,2.5-1,3.8-1.7c1.4-0.7,2.8-1.6,4.4-2.7l-10.7-10.5l-35.5-35.6l-15.6,15.6l-21-21.7l-52.8,52.2c1.5,1.1,3,2,4.4,2.7
		c1.4,0.7,2.6,1.3,3.8,1.7c1.2,0.4,2.3,0.7,3.3,0.9c1,0.2,1.9,0.3,2.8,0.3c1,0,1.9-0.1,2.6-0.3c0.7-0.2,1.4-0.4,1.9-0.6
		c0.5-0.2,0.9-0.4,1.1-0.6c0.3-0.2,0.4-0.3,0.4-0.3l23.8-23.8l8.5-8.2l23.6,23.6l8.2,8.5c0,0,0.2,0.1,0.4,0.3
		c0.3,0.2,0.6,0.4,1.1,0.6c0.5,0.2,1.1,0.4,1.9,0.6c0.7,0.2,1.6,0.3,2.6,0.3c0.8,0,1.8-0.1,2.8-0.3c1-0.2,2.1-0.5,3.3-0.9
		c1.2-0.4,2.5-1,3.8-1.7c1.4-0.7,2.8-1.6,4.4-2.7l-18.9-18.5l3.5-3.5l16.4,16.4L-128.3-294.5 M-128.5-393.3l46.5,80.6l-46.5,80.6
		h-93.1l-46.5-80.6l46.5-80.6C-221.6-393.3-128.5-393.3-128.5-393.3z"/>
</g>
<g id="g60" transform="translate(302.5041,412.251)">
	<path id="path62" inkscape:connector-curvature="0" class="st0" d="M-191.9-335.6l-12.4-12.4l0.9-0.9l12.5,12.3L-191.9-335.6z"/>
</g>
</svg>
