<svg fill="#000000" xmlns="http://www.w3.org/2000/svg"  viewBox="0 0 50 50" width="50px" height="50px"><path d="M 38 10.8125 L 37.09375 14.59375 L 35.1875 11.1875 L 35.1875 12.90625 C 38.085938 15.207031 40.113281 18.695313 40.3125 22.59375 C 41.011719 22.394531 41.613281 22.40625 42.3125 22.40625 C 43.6875 22.40625 44.980469 22.703125 46.125 23.28125 L 45.09375 22.6875 L 48.90625 21.8125 L 45.09375 20.90625 L 48.5 19 L 44.6875 19 L 47.5 16.3125 L 43.8125 17.40625 L 45.8125 14.09375 L 42.5 16.09375 L 43.59375 12.40625 L 40.90625 15.1875 L 41 11.3125 L 39 14.59375 Z M 27 11 C 22 11 17.585938 13.992188 15.6875 18.59375 C 14.988281 18.195313 14 17.90625 13 17.90625 C 9.800781 17.90625 7.09375 20.511719 7.09375 23.8125 L 7.09375 24.3125 C 3.195313 24.613281 0 27.992188 0 32.09375 C 0 32.894531 0.113281 33.613281 0.3125 34.3125 C 0.414063 34.710938 0.8125 35 1.3125 35 L 48.3125 35 C 48.710938 35 48.988281 34.804688 49.1875 34.40625 C 49.6875 33.304688 50 32.199219 50 31 C 50 26.800781 46.511719 23.40625 42.3125 23.40625 C 41.511719 23.40625 40.800781 23.488281 40 23.6875 L 44.90625 30.3125 L 39.40625 25.8125 L 22 29.59375 L 37.09375 24.6875 L 28.5 21.5 L 39.1875 23.3125 L 39.1875 23.1875 C 39.1875 16.488281 33.699219 11 27 11 Z M 46.78125 23.65625 C 47.214844 23.929688 47.625 24.242188 48 24.59375 L 48.5 24.59375 Z"/></svg>