<svg fill="#000000" xmlns="http://www.w3.org/2000/svg"  viewBox="0 0 50 50" width="50px" height="50px"><path d="M 16.5 0 L 5.09375 3.59375 L 13.40625 8.6875 L 25.5 4.09375 L 17.1875 0.09375 C 16.988281 -0.0078125 16.699219 0 16.5 0 Z M 4.09375 5.40625 L 6.59375 17.5 C 6.59375 17.699219 6.800781 17.894531 7 18.09375 L 14.3125 23.8125 L 12.3125 10.40625 Z M 26.40625 5.90625 L 14.40625 10.40625 L 16.40625 23.6875 L 26.40625 18.5 C 26.707031 18.398438 26.90625 17.992188 26.90625 17.59375 Z M 38.3125 17.5625 C 38.136719 17.5625 37.960938 17.585938 37.8125 17.6875 L 32.09375 21.3125 L 38.6875 25.40625 L 44.8125 21 L 38.8125 17.6875 C 38.664063 17.585938 38.488281 17.5625 38.3125 17.5625 Z M 7.40625 20.90625 L 9.5 31.5 C 9.5 31.699219 9.613281 31.898438 9.8125 32 L 16.40625 38.1875 L 14.8125 26.8125 Z M 27 20.90625 L 17 26.59375 L 18.40625 38.1875 L 27 32.40625 C 27.300781 32.207031 27.507813 31.898438 27.40625 31.5 Z M 46 22.59375 L 45.8125 22.8125 C 45.710938 22.914063 45.695313 23 45.59375 23 L 39.5 27.1875 L 39.1875 33.59375 L 39.1875 34 L 44.6875 29.6875 C 44.886719 29.488281 44.992188 29.292969 45.09375 29.09375 Z M 30 22.75 C 29.8125 22.75 29.605469 22.804688 29.40625 22.90625 L 29.1875 23 L 29.5 31.5 C 29.5 31.699219 29.507813 31.988281 29.40625 32.1875 L 36.59375 26.90625 L 30.5 22.90625 C 30.351563 22.804688 30.1875 22.75 30 22.75 Z M 37.6875 28.5 L 29.6875 34.09375 L 29.90625 41 L 29.90625 41.5 L 36.90625 36 C 37.105469 35.800781 37.3125 35.613281 37.3125 35.3125 Z M 10.40625 34.6875 L 11.90625 42.6875 C 11.90625 42.886719 11.988281 42.988281 12.1875 43.1875 L 18.1875 49.5 L 18 49.09375 L 16.6875 40.8125 Z M 27.8125 34.8125 L 18.8125 40.59375 L 20 48.90625 L 20.09375 49.5 L 27.59375 43.5 C 27.894531 43.300781 28 42.988281 28 42.6875 Z"/></svg>