<?xml version="1.0"?><svg fill="#000000" xmlns="http://www.w3.org/2000/svg"  viewBox="0 0 50 50" width="50px" height="50px">    <path d="M 25 2 C 12.318 2 2 12.317 2 25 C 2 25.553 2.448 26 3 26 L 10 26 C 10.552 26 11 25.552 11 25 C 11 17.268 17.268 11 25 11 C 32.732 11 39 17.268 39 25 C 39 32.732 32.732 39 25 39 L 25 32 C 25 31.448 24.552 31 24 31 L 17 31 C 16.448 31 16 31.448 16 32 L 16 39 L 11 39 L 11 35 C 11 34.448 10.552 34 10 34 L 6 34 C 5.448 34 5 34.448 5 35 L 5 39 C 5 39.552 5.448 40 6 40 L 10 40 L 10 45 C 10 45.552 10.448 46 11 46 L 16 46 C 16.552 46 17 45.552 17 45 L 17 40 L 24 40 L 24 47 C 24 47.553 24.448 48 25 48 C 37.682 48 48 37.683 48 25 C 48 12.317 37.682 2 25 2 z"/></svg>