<?xml version="1.0" encoding="utf-8"?>
<!-- Generator: Adobe Illustrator 23.1.0, SVG Export Plug-In . SVG Version: 6.00 Build 0)  -->
<svg version="1.1" id="Layer_1" xmlns="http://www.w3.org/2000/svg" xmlns:xlink="http://www.w3.org/1999/xlink" x="0px" y="0px"
	 viewBox="0 0 203.9 154" style="enable-background:new 0 0 203.9 154;" xml:space="preserve">
<style type="text/css">
	.st0{opacity:0.3;fill:#231F20;enable-background:new    ;}
	.st1{fill:#231F20;stroke:#FFFFFF;stroke-width:1.4932;stroke-linejoin:round;stroke-miterlimit:2;}
	.st2{fill:#231F20;}
</style>
<g>
	<path shape-rendering="auto" color-rendering="auto" image-rendering="auto" class="st0" d="M36,3.5c-14.7,0-24.4,1.2-24.5,1.2
		c0,0-0.1,0-0.1,0c-1,0.1-0.8,1.5,0.1,1.5c0,0,53.5-2.5,96.4,14.7c1.5,6.5,5.6,16.6,8,21.9c-3.2,2.2-6.7,4.5-9.6,8.1
		c-3,3.8-5.3,9-5.9,16.9c-1.2,16.1,12.6,30.3,29.7,30.7c15.9,0.8,26.7,1,39.8,7.8c6.1,3.4,11.9,10.4,16.1,18.9
		c4.3,8.5,7.1,18.6,7.6,28.1c0,0.9,1.4,1,1.5,0c0,0,0-0.1,0-0.1c0.6-7.3-0.5-18.5-4.9-29.2c-3.7-9-9.7-17.5-19-22.9
		c13.3,3.6,21,10.4,25.3,16.6c5,7.1,5.8,13.4,5.8,13.4c0.1,0.9,1.4,0.9,1.5,0c0,0,0.7-7.7-4.7-16.3c-5.3-8.5-16.7-17.8-40.3-21.3
		c-6-0.9-13.5-1.6-21.2-1.6c0,0,0,0,0,0c-18.5,0.2-27.9-10.3-29.3-21.1c-0.7-5.4,0.5-10.9,3.7-15.1c3.1-4.2,8.2-7.3,15-7.8h0
		c11.3-0.9,25.1,5.2,38.7,11.5c0,1.6,0.1,3.2,1.3,4.6c0.8,1,2.2,1.6,3.6,2.3c1.4,0.7,2.9,1.3,3.4,1.6c1.3,0.8,5.7,3.6,8.2,6.9
		c0.3,0.4,1,0.4,1.3-0.1c0,0,0.4-0.5,0.9-0.9c0.5-0.4,1.2-0.9,1.8-1.4c1.3-0.9,2.5-1.7,2.5-1.7c0.6-0.4,0.3-1.4-0.4-1.4
		c0,0-0.2,0-0.8-0.1c-0.6-0.1-1.5-0.3-2.8-0.8c-1.2-0.5-2.7-1.4-3.8-2.3c-0.6-0.4-1-0.9-1.4-1.2c0,0-0.1-0.1-0.1-0.1
		c0.4-0.3,0.4-0.8,0.3-1.2c-0.1-0.3-0.2-0.6-0.4-0.9c-0.3-0.5-0.7-1-1-1.3l0,0c0,0-0.1-0.1-0.2-0.3c-0.1-0.2-0.3-0.4-0.5-0.7
		c-0.4-0.6-0.8-1.3-1.3-2c-0.9-1.4-1.7-2.8-1.7-2.9c0,0-0.2-0.4-0.6-0.6c-0.1,0-0.1-0.1-0.2-0.1c-0.4-0.1-0.7-0.1-1.2-0.1
		c-0.4,0-0.9,0.1-1.3,0.1c-0.7,0.1-1.2,0.2-1.4,0.2c-0.5-0.3-4.5-2.5-5.9-6.9c-0.3-0.8-1.5-0.6-1.5,0.3c0,0.3-0.4,1.2-0.3,2.5
		c-1.8-1.1-3.3-2.7-4.6-6.2c-0.2-0.6-1.1-0.6-1.4,0c-0.5,1.3-0.5,2.3-0.4,3.1c-1.7-0.8-4.4-2.5-5-5.9c-0.1-0.7-1.1-0.8-1.4-0.2
		c-0.5,1.2-0.5,2.1-0.5,2.9c-3.1-1.3-11.7-4.4-24.4-4.5c-2.5-0.2-4.4-1.5-6-3.3c-1.6-1.8-2.8-4.3-3.7-6.9c-0.9-2.6-1.4-5.2-1.6-7.4
		c-0.2-2.2-0.1-4,0-4.5c0.1-0.3,0-0.7-0.4-0.9c0,0-15.6-8.2-46.1-11.8C55.5,3.9,44.8,3.5,36,3.5L36,3.5z M71.6,19.7
		c-4.6,0-9.6,0.2-14.9,0.6c-28,2-56.2,11.8-56.2,11.8c-0.9,0.3-0.5,1.7,0.4,1.4c0,0,57.5-14.4,105.6-6c0,0,0.1,0,0.1,0h0
		c0.5,0,0.9-0.5,0.7-1l-1.3-4.1c-0.1-0.3-0.3-0.5-0.6-0.5C105.5,22,91.7,19.6,71.6,19.7C71.6,19.7,71.6,19.7,71.6,19.7L71.6,19.7z
		 M105.8,28.4c-4.9,0-20.2,0.6-43,7.8c-28.7,9-45,21.7-45,21.7c-0.7,0.6,0,1.7,0.8,1.2c0,0,42.5-23.7,90.3-25c0.5,0,0.8-0.5,0.7-1
		l-1.4-4.2c-0.1-0.3-0.4-0.5-0.7-0.5C107.5,28.4,106.9,28.4,105.8,28.4L105.8,28.4z M137,28.3c-0.7,0-1,1-0.4,1.4h0
		c0,0,0.1,0.1,0.1,0.1c13.1,5.3,24.5,12.4,33.3,22.1c0,0,0,0,0,0l0,0c0.2,0.2,0.4,0.2,0.6,0.2l2.1-0.1c0.6,0,0.9-0.8,0.5-1.2
		c0,0-12.4-15-36-22.3c0,0,0,0,0,0c0,0,0,0,0,0c0,0,0,0,0,0C137.2,28.3,137.1,28.3,137,28.3L137,28.3z M174.4,59.9
		c0.4,0.1,1.2,1.7,2,2.8c0.1,0.1,0.1,0.2,0.2,0.3c0,0,0,0,0,0c0.1,0.1,0.2,0.2,0.2,0.3c0,0.2,0.1,0.4-0.4,0.3c0-0.2-0.1-0.3-0.1-0.3
		s-1.3-0.8-1.8-1.4c-0.4-0.6-0.5-1.6-0.3-1.9C174.2,59.9,174.3,59.9,174.4,59.9L174.4,59.9z"/>
	<g transform="matrix(.5 0 0 .5 1.0075 -.00020183)">
		<path class="st1" d="M69.9,2.4C40.5,2.4,21,4.8,21,4.8s107.7-5.2,194,29.8c2.9,13.1,11.8,35,16.5,45.5
			c-13.6,9.4-28.9,18.2-31.3,49.6c-2.4,31.4,24.6,58.9,58,59.8c31.8,1.7,53.7,1.9,80.3,15.7c25.4,14,46.2,56.8,48.3,95.3
			c2.2-28.5-8.5-89.9-58.5-108.5c69.8,12.2,76,64,76,64c0,0,5.2-59.8-88.7-73.5c-11.9-1.7-26.9-3.1-42.2-3.1
			c-75.2,1-78-86.8-21.3-91.2c23.5-1.9,51.6,10.7,79,23.5c-0.1,3.4,0,6.4,2.3,9.2c2.2,2.8,10.8,5.8,13.6,7.4
			c2.7,1.6,11.5,7.2,16.9,14.2c1.2-2.2,10.9-8.5,10.9-8.5s-2.3,0.1-7.8-2c-5.4-2-11.9-8.2-12.1-8.5c-0.2-0.4-0.3-0.9,1-1.2
			c1-0.8-1.2-3.5-2.2-4.4c-1-1-7.4-11.9-7.6-12.2c-0.2-0.3-0.2-0.5-0.7-0.8c-1.4-0.5-7.7,0.7-7.7,0.7s-9.6-4.7-12.9-14.9
			c0,1.8-1.6,3.7,0,7.8c-5-2.1-9.3-5.7-12.7-14.7c-2,5.1,0,8.3,0,8.3s-11.8-3.3-13.7-14.2c-2.1,4.9,0,7.8,0,7.8s-19.3-10-51.3-10.2
			c-21.4-2-25.9-39.6-23.9-46c0,0-30.9-16.3-91.7-23.5C108.9,3.2,87.6,2.4,69.9,2.4L69.9,2.4z M141.2,34.9
			c-9.3,0.1-19.2,0.4-29.7,1.2c-55.8,4-112,23.5-112,23.5s115.2-29,211.8-12h0l-2.5-8.1C208.8,39.5,181.4,34.6,141.2,34.9
			L141.2,34.9z M209.5,52.2c-9.8,0-40,1.2-85.6,15.4c-57.1,17.9-89.5,43.2-89.5,43.2s85.1-47.5,181.2-50.2l-2.7-8.3
			C212.9,52.3,211.7,52.2,209.5,52.2L209.5,52.2z M272.1,52.1c26.4,10.7,49.3,24.9,67.2,44.5l0,0l4.3-0.3
			C343.5,96.3,319,66.5,272.1,52.1L272.1,52.1z M344.8,109.2l5.2,3.9c0.7-1.1,3.3,6.1,4.9,8.1c0.1,0.4-2.7,3.6-3.6,3.4
			c-0.1-0.4-4.3-1.6-4.3-1.6s-4.9-2.9-5.5-3.9C340.7,118.1,344.4,109.9,344.8,109.2L344.8,109.2z"/>
		<path class="st2" d="M69.9,2.4C40.5,2.4,21,4.8,21,4.8s107.7-5.2,194,29.8c2.9,13.1,11.8,35,16.5,45.5
			c-13.6,9.4-28.9,18.2-31.3,49.6c-2.4,31.4,24.6,58.9,58,59.8c31.8,1.7,53.7,1.9,80.3,15.7c25.4,14,46.2,56.8,48.3,95.3
			c2.2-28.5-8.5-89.9-58.5-108.5c69.8,12.2,76,64,76,64c0,0,5.2-59.8-88.7-73.5c-11.9-1.7-26.9-3.1-42.2-3.1
			c-75.2,1-78-86.8-21.3-91.2c23.5-1.9,51.6,10.7,79,23.5c-0.1,3.4,0,6.4,2.3,9.2c2.2,2.8,10.8,5.8,13.6,7.4
			c2.7,1.6,11.5,7.2,16.9,14.2c1.2-2.2,10.9-8.5,10.9-8.5s-2.3,0.1-7.8-2c-5.4-2-11.9-8.2-12.1-8.5c-0.2-0.4-0.3-0.9,1-1.2
			c1-0.8-1.2-3.5-2.2-4.4c-1-1-7.4-11.9-7.6-12.2c-0.2-0.3-0.2-0.5-0.7-0.8c-1.4-0.5-7.7,0.7-7.7,0.7s-9.6-4.7-12.9-14.9
			c0,1.8-1.6,3.7,0,7.8c-5-2.1-9.3-5.7-12.7-14.7c-2,5.1,0,8.3,0,8.3s-11.8-3.3-13.7-14.2c-2.1,4.9,0,7.8,0,7.8s-19.3-10-51.3-10.2
			c-21.4-2-25.9-39.6-23.9-46c0,0-30.9-16.3-91.7-23.5C108.9,3.2,87.6,2.4,69.9,2.4L69.9,2.4z M141.2,34.9
			c-9.3,0.1-19.2,0.4-29.7,1.2c-55.8,4-112,23.5-112,23.5s115.2-29,211.8-12h0l-2.5-8.1C208.8,39.5,181.4,34.9,141.2,34.9
			L141.2,34.9z M209.5,52.2c-9.8,0-40,1.2-85.6,15.4c-57.1,17.9-89.5,43.2-89.5,43.2s85.1-47.5,181.2-50.2l-2.7-8.3
			C212.9,52.3,211.7,52.2,209.5,52.2L209.5,52.2z M272.1,52.1c26.4,10.7,49.3,24.9,67.2,44.5l0,0l4.3-0.3
			C343.5,96.3,319,66.5,272.1,52.1L272.1,52.1z M346.7,113.8c0.9,0.2,2.5,3.4,4,5.6c0.1,0.2,0.3,0.4,0.4,0.5c0,0,0,0,0,0
			c0.2,0.2,0.3,0.5,0.5,0.7c0.1,0.5,0.2,0.8-0.9,0.5c-0.1-0.5-0.3-0.6-0.3-0.6s-2.7-1.6-3.5-2.7c-0.8-1.1-1-3.1-0.6-3.9
			C346.4,113.8,346.6,113.8,346.7,113.8L346.7,113.8z"/>
	</g>
</g>
</svg>
